<svg id="Layer_1" data-name="Layer 1" xmlns="http://www.w3.org/2000/svg" viewBox="0 0 196.42 183.25"><defs><style>.cls-1{fill:#000;}</style></defs><title>Artboard 1</title><path class="cls-1" d="M189.34,84.23a7.19,7.19,0,0,0-3.51-3.36c4-5.16,6.92-11.37,6.62-16.1a6.23,6.23,0,0,0-4.86-6.08,11.59,11.59,0,0,0-4.16-.19c.3-.53.51-.9.61-1.09,1.73-3.16,10.14-19.26,5.86-26.52a6.7,6.7,0,0,0-6.21-3.64c2.07-9.79,2-16.52-.3-20a6,6,0,0,0-4-2.76c-4.86-.88-8.41,7.42-15.35,24.79-6.68,16.7-14.91,37.26-26.48,50.12-3.13-2.66-6-4.73-7.17-5.54A24.63,24.63,0,0,0,127.46,67l-2.83,1.71A21.91,21.91,0,0,1,127,74.24L85.26,111.29a19.25,19.25,0,0,1-5.27-3l-2,2.6a22.35,22.35,0,0,0,6.6,3.65c1.62,2.8,3.37,5.53,5.21,8.2C79.36,130.7,60.08,138.21,43,144.86c-22,8.56-32.57,12.89-31.94,17.84a5.94,5.94,0,0,0,2.53,4.16c3.38,2.4,10.13,2.72,20.09.94a6.77,6.77,0,0,0,3.46,6.31c7.12,4.5,23.47-3.41,26.68-5,.19-.1.58-.29,1.11-.58a11.58,11.58,0,0,0,.06,4.17,6.23,6.23,0,0,0,5.94,5.05c.32,0,.66,0,1,0,4.36,0,9.82-2.47,14.61-5.91A6.57,6.57,0,0,0,89,174c3.78,1.94,8.89.63,14.78-3.81,5.18-3.91,9.21-10.67,13.48-17.83l.38-.65a47.69,47.69,0,0,0,22.82,5.45c.61,0,1.22,0,1.82,0-.29,2.36-.61,4.78-.95,7.22-.43,3.19-.88,6.5-1.24,9.61l-.18,1.61,1.61.22a51.79,51.79,0,0,0,6.77.44c7,0,16.77-1.45,24.25-8.1l.11-.1c10.43-9.22,11.38-24,11.31-29.87l0-1.62h-1.62c-3.22,0-6.52,0-9.82,0l-6.82,0a48.91,48.91,0,0,0-2-24.23c3.87-.84,12.33-3,17.13-7.22C192.64,95,190.72,87.12,189.34,84.23ZM126.52,95c.29-.72.61-1.42.94-2.13a6.48,6.48,0,0,1,1.13-1.33,6.64,6.64,0,0,1,4.46-1.7h.41a6.73,6.73,0,1,1-7.12,6.32A6.48,6.48,0,0,1,126.52,95Zm1.18-17a24,24,0,0,1-2.77,12.48l-.3.62a10,10,0,0,0-1.29,2.94,19.46,19.46,0,0,0,0,15.12c-8.47-3.76-16.36-.92-21.43.9l-.89.32a26.2,26.2,0,0,1-11.78,1.76Zm-24.54,36a6.74,6.74,0,1,1-2.25,4.63A6.69,6.69,0,0,1,103.16,114.12Zm-11.82,1.53a29,29,0,0,0,7.35-1A10,10,0,0,0,107,129.17l.61,0a10,10,0,0,0,5.47-18.43,18.93,18.93,0,0,1,13.52,4.39l2.27-2.39-.08-.1a20.48,20.48,0,0,1-3.7-9.92c.14.18.27.36.43.53a9.93,9.93,0,0,0,6.9,3.36l.62,0a10,10,0,1,0-3.2-19.56A25.88,25.88,0,0,0,131,78.43a73.59,73.59,0,0,1,10.48,9.38l13.08,14.75a40.8,40.8,0,0,1,4.56,7.34l-2.09.34c-4.88.8-7.82,1.28-9.71,2.84-2.6,2.15-3.06,5.07-3.47,7.64a15.92,15.92,0,0,1-.83,3.58c-1,2.41-2.39,2.77-5.5,3.35-.8.15-1.63.31-2.48.52-.61.15-1.16.27-1.66.38-2.57.55-4.6,1-6,4.35a11.74,11.74,0,0,0-.79,3.93c-.17,2.09-.33,3.23-1.91,4.24a27.78,27.78,0,0,1-2.46,1.38,12.79,12.79,0,0,0-5.58,4.82,39.27,39.27,0,0,1-6.44-5.2l-9.37-10.57a112,112,0,0,1-11.8-16A22.64,22.64,0,0,0,91.34,115.65Zm71.4,6.44-1.33.21c-5.11.74-9.52,1.38-12.23,8.11-.22.55-.41,1.1-.61,1.65-.75,2.13-1.35,3.81-3.17,4.84a4.05,4.05,0,0,1-2,.43,11,11,0,0,0-2.39.34c-5,1.37-5.44,4.08-5.76,6.27a6.06,6.06,0,0,1-1.35,3.53,6.27,6.27,0,0,1-2.46,1.25c-1.59.57-3.66,1.34-4.43,3.33a40.5,40.5,0,0,1-7.42-3,9.46,9.46,0,0,1,4.18-3.51A29.89,29.89,0,0,0,126.5,144c3.08-2,3.3-4.68,3.48-6.85a9,9,0,0,1,.52-2.84c.75-1.74,1.3-1.86,3.62-2.36.53-.11,1.11-.24,1.76-.4s1.55-.34,2.28-.47c3.12-.59,6.34-1.19,8.06-5.45a19.2,19.2,0,0,0,1-4.33c.36-2.26.67-4.21,2.26-5.53,1.17-1,4.07-1.44,8.07-2.09l2.92-.48A41,41,0,0,1,162.74,122.09Zm-74.38,44c0-.52,0-1,.07-1.41.5-5,3.42-10.15,5.37-10.7a1,1,0,0,1,.19,0c.15,0,.34.07.6.36.67,1.83-.12,4.44-2.25,7.38A30.57,30.57,0,0,1,88.36,166.14Zm26.1-15.44c-4.1,6.88-8,13.37-12.63,16.89-2.74,2.06-7.86,5.27-11.27,3.51a3.4,3.4,0,0,1-1.38-1.3A35,35,0,0,0,95,163.68c3-4.09,3.84-7.83,2.54-10.83l-.2-.33a4.06,4.06,0,0,0-4.45-1.67c-3.88,1.09-7.2,8-7.76,13.55a14.24,14.24,0,0,0,.15,4.28c-4.87,3.63-10.41,6.08-14,5.73a3,3,0,0,1-3-2.47,11.73,11.73,0,0,1,.59-5.66c4.66-2.81,11.17-7.3,13.5-11.73a4.16,4.16,0,0,0-.76-5.08c-.79-.69-2.52-1.62-5.23,0-3.47,2-8,8.43-10.25,14.61-1.4.82-2.7,1.52-3.75,2.05-8.44,4.3-19.37,7.75-23.42,5.2a3.54,3.54,0,0,1-1.8-4.19c8.39-1.75,25.59-5.38,25.08-14.28l0-.2a4.88,4.88,0,0,0-4.84-4.14c-6.93-.45-19.3,8.35-22.7,15.75-12.91,2.51-17.5,1-19.1-.1a2.57,2.57,0,0,1-1.17-1.86c.18-2.82,17.33-9.49,29.85-14.36,17.24-6.7,36.68-14.28,47.48-22.5,2.09,2.85,4.29,5.62,6.63,8.26l9.44,10.64a42.94,42.94,0,0,0,7.1,5.71ZM71.09,160.89c2-3.8,4.66-7.25,6.92-8.59a3,3,0,0,1,1.12-.42.32.32,0,0,1,.24.08.92.92,0,0,1,0,1C78.05,155.55,74.67,158.4,71.09,160.89Zm-32.15,2.47c4-5.71,13.21-11.56,17.84-11.56h.33c1.23.08,1.62.59,1.78,1.34C59,158.41,46,161.8,38.94,163.36Zm91.56-10.43a7.34,7.34,0,0,1,2.09-1,8.79,8.79,0,0,0,3.91-2.24,9.43,9.43,0,0,0,2.15-5.28c.28-1.89.39-2.67,3.25-3.45a7.52,7.52,0,0,1,1.68-.22,7.4,7.4,0,0,0,3.51-.87c2.95-1.67,3.89-4.34,4.73-6.69.18-.51.36-1,.56-1.51,2-4.9,4.49-5.26,9.52-6l1.15-.18a51.32,51.32,0,0,1-.67,11.24h0c-.14,0-.34,0-.59,0-1.72.09-5.3.27-8,3.23a6.25,6.25,0,0,0-1.47,4.06c-.1,1.25-.18,1.78-1,2.3a9.43,9.43,0,0,1-2.42,1.1c-2.5.83-4.41,1.81-6,6.38A50.1,50.1,0,0,1,130.5,152.93Zm31.21-12.82A56.66,56.66,0,0,1,158,151.19a57.09,57.09,0,0,1-11.31,2.39,4.58,4.58,0,0,1,3.37-3,12.07,12.07,0,0,0,3.22-1.49,5.58,5.58,0,0,0,2.4-4.76,3.38,3.38,0,0,1,.62-2.13A7.46,7.46,0,0,1,161.71,140.11Zm10.86-.2c2.72,0,5.45-.06,8.11,0-.15,5.56-1.51,18.06-10.19,25.73l-.11.1c-8.56,7.61-20.61,7.63-26.77,7,.32-2.58.68-5.28,1-7.89s.72-5.31,1-7.87a58.12,58.12,0,0,0,14-2.87l.28-.1.35-.16.23-.36.14-.26A57.72,57.72,0,0,0,165.11,140C167.56,140,170.06,139.94,172.57,139.91ZM162.48,109.3a43.17,43.17,0,0,0-5.37-8.85L144,85.62a56.08,56.08,0,0,0-4-4c11.95-13.3,20.3-34.15,27.07-51.08,3.92-9.79,9.27-23.18,11.68-22.76A2.72,2.72,0,0,1,180.62,9c1.07,1.66,2.39,6.32-.49,19-7.57,3.19-16.83,15.42-16.59,22.36a4.89,4.89,0,0,0,4,5c9,1.63,13.28-16.11,15.34-24.65l0-.1a3.53,3.53,0,0,1,4.13,1.91c2.43,4.13-1.36,15-5.91,23.25-.57,1-1.31,2.3-2.17,3.68-6.24,2-12.76,6.39-14.92,9.8-1.69,2.66-.82,4.41-.15,5.22a4.14,4.14,0,0,0,5,.92c4.5-2.2,9.2-8.56,12.15-13.13a11.82,11.82,0,0,1,5.67-.42,3,3,0,0,1,2.38,3.1c.25,4-2.62,9.94-6.69,14.86a21.91,21.91,0,0,0-5.82-.08c-4.46.47-11.42,2.54-12.32,6.31-.22,1-.23,2.81,2.28,4.42l.24.13c3.29,1.42,7.31.56,11.62-2.48a32.79,32.79,0,0,0,5.13-4.62,4.43,4.43,0,0,1,2.76,2.12c2.19,4.6-.67,11-7.65,17C174.27,106.55,165.74,108.62,162.48,109.3ZM179.1,32.36c-1.79,7.12-5.69,20.76-10.89,19.8-.79-.17-1.32-.55-1.37-1.83C166.68,45.77,173.05,36.34,179.1,32.36Zm-3.47,32.05c-2.59,3.51-5.54,6.79-8.13,8.06a.92.92,0,0,1-1.05-.06c-.25-.3.28-1.17.39-1.34C168.25,68.85,171.78,66.29,175.63,64.41Zm4,18.52a25.92,25.92,0,0,1-3,2.51c-1.87,1.32-5.41,3.34-8.27,2.21-.58-.4-.76-.7-.74-.8.27-1.14,4.18-3.24,9.45-3.8A22.21,22.21,0,0,1,179.59,82.93Z"/><path class="cls-1" d="M110.37,121.43a3.42,3.42,0,1,0-4.83.24A3.42,3.42,0,0,0,110.37,121.43Z"/><path class="cls-1" d="M135.61,99.06a3.43,3.43,0,1,0-4.84.24A3.43,3.43,0,0,0,135.61,99.06Z"/></svg>