<svg id="Layer_1" data-name="Layer 1" xmlns="http://www.w3.org/2000/svg" viewBox="0 0 124.93 29.33"><defs><style>.cls-1{fill:#000;}</style></defs><title>Artboard 1</title><path class="cls-1" d="M10.17,20.4c0,.83,0,2.54.09,3.16H6.49c.11-1,.15-3.86.15-5.29V13.42c0-1.4,0-4.24-.15-5.29.79,0,3.57-.11,4.87-.11,4.26,0,6.43,2.09,6.43,4.92,0,3.13-2.06,5.62-6.8,5.62a7.49,7.49,0,0,1-.82,0Zm1.23-9.61c-.44,0-.72,0-1.27,0V15.9a7.31,7.31,0,0,0,.92,0c2,0,3.29-.92,3.29-2.61S13.4,10.79,11.4,10.79Z"/><path class="cls-1" d="M48.09,23.56c.11-1,.16-3.67.16-5.09V17H41.79V20.4c0,.83,0,2.54.07,3.16H38.11c.11-1,.15-3.86.15-5.29V13.42c0-1.4,0-4.24-.15-5.29.85,0,3,0,3.75-.11,0,.64-.07,2.39-.07,3.25v3h6.46v-.85c0-1.4,0-4.24-.16-5.29.86,0,3,0,3.78-.11-.07.64-.09,2.39-.09,3.25V20.4c0,.83,0,2.54.09,3.16Z"/><path class="cls-1" d="M73.51,7.36l4,10.69L80,11.13c.44-1.23.9-2.52,1.27-3.62h3.76L80.34,18.77c-.79,1.85-1.25,3-1.67,4.28l-2.32.18L71.63,12c-.57-1.38-1.32-3.14-1.94-4.48Z"/><path class="cls-1" d="M109.9,22.92h-5.31c.11-1.05.15-3.86.15-5.29V12.78c0-1.4,0-4.21-.15-5.27.79,0,2.52-.13,4.8-.13,5.69,0,8.78,3,8.78,7.44C118.17,19.71,114.9,22.92,109.9,22.92Zm-.2-12.8c-.55,0-1,0-1.43.07,0,.33,0,.86,0,1.14V19c0,.31,0,.68,0,1a10.31,10.31,0,0,0,1.48.11c3.51,0,4.93-2.29,4.93-5.14C114.68,12,112.86,10.12,109.7,10.12Z"/></svg>